<svg id="Layer_1" data-name="Layer 1" xmlns="http://www.w3.org/2000/svg" viewBox="0 0 306.57 284.82">
  <defs>
    <style>
      .cls-1 {
        fill: none;
        stroke: #000;
        stroke-miterlimit: 10;
        stroke-width: 2px;
      }
    </style>
  </defs>
  <title>logo_final</title>
  <path class="cls-1" d="M437.62,816.47c4,1.54,25.13,9.77,26.19,23,.17,2-1.8,7.54-5.75,18.53s-4.9,12.65-3.83,14c2.65,3.47,13.14-1.62,33.22-7.67,19.53-5.87,30.33-9.12,31.94-6.38,2.44,4.14-14.74,24.51-39,33.21-18.15,6.52-22.15,1.17-32.25,9.5-9.29,7.66-11.58,19.3-18.21,37.78-6.44,17.93-11.95,36.19-17.89,54.29-17.94,54.7-30.66,77.26-25.55,80.49,3.82,2.42,14.59-7.89,22.36-15.33,12.87-12.32,20-23.26,27.47-34.49,33.53-50.26,38.54-51.93,41-51.09,3.7,1.27,6.75,10.06,4.06,14.2-10.65,16.39-8,14.37-14.88,23-9.23,11.59-9.26,13.78-20.11,29.15a155,155,0,0,1-26.57,31.06c-16,14.6-24,21.91-37.2,24.35-4.91.91-18.31,3.4-29.77-4.73-11.82-8.4-13.95-14.59-14-18.52-.17-7.61,2.68-16.5,10-39,8.41-25.83,15.18-38.33,22.11-57.78,6.14-13.38,11.7-29.82,14.53-37.77,5-14.05,7.92-24.53,8.08-28.55-6.14,0-18.16,3.3-19.71,3.52-4.38.6-12.07,2.29-22.55,7.64-8.19,5.91-10.92,13.21-12.41,16.62-.65,4.29.46,6.79,2.32,9.8a74.57,74.57,0,0,0,10.09,8.14c10.09,4.61,12.62,6.52,12.37,7.27-.77,2.29-29.67,1.54-39.65-15.64-7.81-13.45.07-29.89.59-30.94,7.06-14.18,21.89-19.35,38.33-25.08a127.36,127.36,0,0,1,30.19-6.55,14.08,14.08,0,0,0,9.25-3.64c5-4.67,6.12-13.55,6-14.26,1.72-6.12,1.5-10.57,2.79-17.81a209,209,0,0,0,3.21-34.47A61.41,61.41,0,0,1,437.62,816.47ZM338.21,939.86m16-23.25,39.28-8.82-39.28,8.82,39.28-8.82M339.82,1054.5,528.21,859.29c-2.51,7.88-8.91,17.32-21.48,26.49-4.64,3.39-8.11,3.77-8,4.25.86,2.79,110.48-30.75,123.66-32.64.64-.09,2.47-3.1,2.68-4.91.25-2.05-2.84-5-5.61-6.52-10.25-5.58-23.1,6.15-42.71,1.88-11.65-2.54-11.76-14.54-26.54-18.32-1.34-.34-10.51-2.68-12.47.54-3,4.91,14.77,16.46,11.41,25.74-1.58,4.37-7.55,7.37-9.82,6.1-1.64-.92-.73-3.74-2.65-5.31C534,854.39,528.48,858.44,528.21,859.29Z" transform="translate(-319.55 -811.38)"/>
</svg>
